<svg preserveAspectRatio="none" width="100%" height="100%" overflow="visible" style="display: block;" viewBox="0 0 14 14" fill="none" xmlns="http://www.w3.org/2000/svg">
<g id="CaretDown">
<path id="Vector" d="M11.6069 5.48187L7.23188 9.85687C7.17035 9.91832 7.08695 9.95284 7 9.95284C6.91305 9.95284 6.82965 9.91832 6.76813 9.85687L2.39312 5.48187C2.33516 5.41967 2.30361 5.3374 2.30511 5.2524C2.30661 5.16739 2.34105 5.08628 2.40117 5.02617C2.46128 4.96605 2.54239 4.93161 2.6274 4.93011C2.7124 4.92861 2.79467 4.96016 2.85688 5.01812L7 9.1607L11.1431 5.01812C11.2053 4.96016 11.2876 4.92861 11.3726 4.93011C11.4576 4.93161 11.5387 4.96605 11.5988 5.02617C11.659 5.08628 11.6934 5.16739 11.6949 5.2524C11.6964 5.3374 11.6648 5.41967 11.6069 5.48187Z" fill="var(--fill-0, white)"/>
</g>
</svg>
