<svg preserveAspectRatio="none" width="100%" height="100%" overflow="visible" style="display: block;" viewBox="0 0 196 64" fill="none" xmlns="http://www.w3.org/2000/svg">
<foreignObject x="-54.3656" y="-54.3656" width="304.731" height="172.731"><div xmlns="http://www.w3.org/1999/xhtml" style="backdrop-filter:blur(27.18px);clip-path:url(#bgblur_0_0_33_clip_path);height:100%;width:100%"></div></foreignObject><path id="Background" data-figma-bg-blur-radius="54.3656" fill-rule="evenodd" clip-rule="evenodd" d="M0 32C0 24.5602 0 20.8403 0.81778 17.7883C3.03699 9.50613 9.50613 3.03699 17.7883 0.81778C20.8403 0 24.5602 0 32 0H164C171.44 0 175.16 0 178.212 0.817779C186.494 3.03699 192.963 9.50613 195.182 17.7883C196 20.8403 196 24.5602 196 32C196 39.4398 196 43.1597 195.182 46.2117C192.963 54.4939 186.494 60.963 178.212 63.1822C175.16 64 171.44 64 164 64H32C24.5602 64 20.8403 64 17.7883 63.1822C9.50613 60.963 3.03699 54.4939 0.81778 46.2117C0 43.1597 0 39.4398 0 32Z" fill="var(--fill-0, white)" fill-opacity="0.2"/>
<defs>
<clipPath id="bgblur_0_0_33_clip_path" transform="translate(54.3656 54.3656)"><path fill-rule="evenodd" clip-rule="evenodd" d="M0 32C0 24.5602 0 20.8403 0.81778 17.7883C3.03699 9.50613 9.50613 3.03699 17.7883 0.81778C20.8403 0 24.5602 0 32 0H164C171.44 0 175.16 0 178.212 0.817779C186.494 3.03699 192.963 9.50613 195.182 17.7883C196 20.8403 196 24.5602 196 32C196 39.4398 196 43.1597 195.182 46.2117C192.963 54.4939 186.494 60.963 178.212 63.1822C175.16 64 171.44 64 164 64H32C24.5602 64 20.8403 64 17.7883 63.1822C9.50613 60.963 3.03699 54.4939 0.81778 46.2117C0 43.1597 0 39.4398 0 32Z"/>
</clipPath></defs>
</svg>
