<svg preserveAspectRatio="none" width="100%" height="100%" overflow="visible" style="display: block;" viewBox="0 0 108 54" fill="none" xmlns="http://www.w3.org/2000/svg">
<foreignObject x="-54.3656" y="-54.3656" width="216.731" height="162.731"><div xmlns="http://www.w3.org/1999/xhtml" style="backdrop-filter:blur(27.18px);clip-path:url(#bgblur_0_0_46_clip_path);height:100%;width:100%"></div></foreignObject><path id="Background" data-figma-bg-blur-radius="54.3656" fill-rule="evenodd" clip-rule="evenodd" d="M0 27C0 12.0883 12.0883 0 27 0H81C95.9117 0 108 12.0883 108 27C108 41.9117 95.9117 54 81 54H27C12.0883 54 0 41.9117 0 27Z" fill="var(--fill-0, white)" fill-opacity="0.2"/>
<defs>
<clipPath id="bgblur_0_0_46_clip_path" transform="translate(54.3656 54.3656)"><path fill-rule="evenodd" clip-rule="evenodd" d="M0 27C0 12.0883 12.0883 0 27 0H81C95.9117 0 108 12.0883 108 27C108 41.9117 95.9117 54 81 54H27C12.0883 54 0 41.9117 0 27Z"/>
</clipPath></defs>
</svg>
