<svg preserveAspectRatio="none" width="100%" height="100%" overflow="visible" style="display: block;" viewBox="0 0 800 64" fill="none" xmlns="http://www.w3.org/2000/svg">
<foreignObject x="-95.37" y="-95.37" width="990.74" height="254.74"><div xmlns="http://www.w3.org/1999/xhtml" style="backdrop-filter:blur(47.69px);clip-path:url(#bgblur_0_0_47_clip_path);height:100%;width:100%"></div></foreignObject><path id="Background" data-figma-bg-blur-radius="95.37" fill-rule="evenodd" clip-rule="evenodd" d="M0 32C0 24.5602 0 20.8403 0.81778 17.7883C3.03699 9.50613 9.50613 3.03699 17.7883 0.81778C20.8403 0 24.5602 0 32 0H768C775.44 0 779.16 0 782.212 0.817779C790.494 3.03699 796.963 9.50613 799.182 17.7883C800 20.8403 800 24.5602 800 32C800 39.4398 800 43.1597 799.182 46.2117C796.963 54.4939 790.494 60.963 782.212 63.1822C779.16 64 775.44 64 768 64H32C24.5602 64 20.8403 64 17.7883 63.1822C9.50613 60.963 3.03699 54.4939 0.81778 46.2117C0 43.1597 0 39.4398 0 32Z" fill="var(--fill-0, white)" fill-opacity="0.2"/>
<defs>
<clipPath id="bgblur_0_0_47_clip_path" transform="translate(95.37 95.37)"><path fill-rule="evenodd" clip-rule="evenodd" d="M0 32C0 24.5602 0 20.8403 0.81778 17.7883C3.03699 9.50613 9.50613 3.03699 17.7883 0.81778C20.8403 0 24.5602 0 32 0H768C775.44 0 779.16 0 782.212 0.817779C790.494 3.03699 796.963 9.50613 799.182 17.7883C800 20.8403 800 24.5602 800 32C800 39.4398 800 43.1597 799.182 46.2117C796.963 54.4939 790.494 60.963 782.212 63.1822C779.16 64 775.44 64 768 64H32C24.5602 64 20.8403 64 17.7883 63.1822C9.50613 60.963 3.03699 54.4939 0.81778 46.2117C0 43.1597 0 39.4398 0 32Z"/>
</clipPath></defs>
</svg>
